<svg xmlns="http://www.w3.org/2000/svg" viewBox="0 0 265.48 31.44"><defs><style>.cls-1{stroke:#000;stroke-miterlimit:10;}</style></defs><g id="Layer_2" data-name="Layer 2"><g id="Layer_1-2" data-name="Layer 1"><path class="cls-1" d="M61,22.54a4.14,4.14,0,0,0-1.62.32L51.89,8.36a4.2,4.2,0,1,0-4.08,0L40.28,22.87a4.35,4.35,0,0,0-1.66-.33,4.2,4.2,0,1,0,4.17,4.74H56.87A4.2,4.2,0,1,0,61,22.54ZM49.83,8.9H50L57.84,24a4.13,4.13,0,0,0-.7,1.16H42.52a4,4,0,0,0-.67-1.13L49.72,8.9Z"/><path class="cls-1" d="M.58,29.52,4.48,2.29h.44L16,24.64,27,2.29h.43l3.92,27.23H28.64L26,10.05,16.32,29.52h-.69L5.88,9.9,3.21,29.52Z"/><path class="cls-1" d="M69.27,2.29H74.7a32.55,32.55,0,0,1,6.14.37,7,7,0,0,1,4,2.38,6.82,6.82,0,0,1,1.51,4.5,7.26,7.26,0,0,1-1,3.91,6.63,6.63,0,0,1-3,2.55,13.81,13.81,0,0,1-5.37.88l9.79,12.64H83.33l-9.8-12.64H72V29.52H69.27ZM72,5v9.26l4.69,0a11.58,11.58,0,0,0,4-.52,4.18,4.18,0,0,0,2-1.66,4.57,4.57,0,0,0,.73-2.54A4.41,4.41,0,0,0,82.75,7a4.15,4.15,0,0,0-2-1.6,11.78,11.78,0,0,0-4-.49Z"/><path class="cls-1" d="M92.14,2.29h2.77V12.51L105.8,2.29h3.66L96.38,14.51l14.1,15h-3.63L94.91,16.84V29.52H92.14Z"/><path class="cls-1" d="M114.56,2.29h15.61V5H117.28v8.54h12.78v2.67H117.28v10.7h12.78v2.66h-15.5Z"/><path class="cls-1" d="M132.17,5V2.29h14.92V5H141V29.52h-2.78V5Z"/><path d="M151,2.29h5.42a30.62,30.62,0,0,1,6.3.41,7,7,0,0,1,3.81,2.36A6.77,6.77,0,0,1,168,9.55,6.89,6.89,0,0,1,166.57,14a7.14,7.14,0,0,1-4,2.38,35.93,35.93,0,0,1-6.93.44h-1.94V29.52H151ZM153.72,5v9.24l4.61.06a12,12,0,0,0,4.09-.51,4.29,4.29,0,0,0,2-1.64,4.6,4.6,0,0,0,.74-2.54,4.53,4.53,0,0,0-.74-2.51,4.1,4.1,0,0,0-2-1.61,11.7,11.7,0,0,0-4-.49Z"/><path d="M173.46,2.29h2.72V26.9h10.48v2.62h-13.2Z"/><path d="M202.1,2.29l12.7,27.23h-2.94l-4.28-9H195.84l-4.24,9h-3L201.43,2.29Zm-.35,5.79-4.66,9.85h9.31Z"/><path d="M244.39,7.34,242.24,9A11.87,11.87,0,0,0,238,5.48a12.56,12.56,0,0,0-5.47-1.19,12.16,12.16,0,0,0-6,1.56,11.3,11.3,0,0,0-4.3,4.21A11.57,11.57,0,0,0,220.63,16a11.12,11.12,0,0,0,3.42,8.31,11.86,11.86,0,0,0,8.62,3.34,12.15,12.15,0,0,0,9.57-4.48l2.15,1.62a13.71,13.71,0,0,1-5.09,4,15.83,15.83,0,0,1-6.8,1.42q-7.14,0-11.28-4.76a14.39,14.39,0,0,1-3.46-9.7A13.47,13.47,0,0,1,222,5.69a14.4,14.4,0,0,1,10.5-4.09,15.49,15.49,0,0,1,6.89,1.51A13.46,13.46,0,0,1,244.39,7.34Z"/><path d="M249.87,2.29h15.61V5H252.59v8.54h12.77v2.67H252.59v10.7h12.77v2.66H249.87Z"/></g></g></svg>